<svg width="24" height="24" viewBox="0 0 24 24" fill="none" xmlns="http://www.w3.org/2000/svg">
<rect x="0.75" y="0.75" width="22.5" height="22.5" rx="1.25" stroke="white" stroke-width="1.5"/>
<path d="M9.56042 5.50256L8.54758 4.53298C8.45452 4.44389 8.33066 4.39417 8.20183 4.39417H4.95026C4.52925 4.39417 4.29672 4.8827 4.56221 5.20946L6.15229 7.16649C6.30155 7.35019 6.30155 7.61338 6.15229 7.79709L4.56221 9.75412C4.29672 10.0809 4.52925 10.5694 4.95026 10.5694H8.16459C8.31515 10.5694 8.4577 10.5016 8.55264 10.3847L9.56042 9.14436" stroke="white" stroke-width="1.5" stroke-linecap="round"/>
<path d="M13.271 14.251H15.2577M19.8984 14.251H15.2577M15.2577 14.251V20.1021M18.0552 14.251V17.1765V20.1021" stroke="white" stroke-width="1.5" stroke-linecap="round"/>
</svg>
